<?xml version="1.0" encoding="utf-8"?>
<!-- Generator: Adobe Illustrator 24.1.3, SVG Export Plug-In . SVG Version: 6.00 Build 0)  -->
<svg version="1.1" id="Capa_1" xmlns="http://www.w3.org/2000/svg" xmlns:xlink="http://www.w3.org/1999/xlink" x="0px" y="0px"
	 viewBox="0 0 425.2 425.2" style="enable-background:new 0 0 425.2 425.2;" xml:space="preserve">
<style type="text/css">
	.st0{fill:none;stroke:#23388E;stroke-width:12.5;stroke-linecap:round;stroke-linejoin:round;stroke-miterlimit:10;}
	.st1{fill:none;stroke:url(#SVGID_1_);stroke-width:10;stroke-linecap:round;stroke-linejoin:round;stroke-miterlimit:10;}
	.st2{fill:none;stroke:url(#SVGID_2_);stroke-width:10;stroke-linecap:round;stroke-linejoin:round;stroke-miterlimit:10;}
	.st3{fill:none;stroke:url(#SVGID_3_);stroke-width:10;stroke-linecap:round;stroke-linejoin:round;stroke-miterlimit:10;}
	.st4{fill:none;stroke:url(#SVGID_4_);stroke-width:10;stroke-linecap:round;stroke-linejoin:round;stroke-miterlimit:10;}
	.st5{fill:none;stroke:url(#SVGID_5_);stroke-width:10;stroke-linecap:round;stroke-linejoin:round;stroke-miterlimit:10;}
	.st6{fill:none;stroke:url(#SVGID_6_);stroke-width:10;stroke-linecap:round;stroke-linejoin:round;stroke-miterlimit:10;}
	.st7{fill:none;stroke:url(#SVGID_7_);stroke-width:10;stroke-linecap:round;stroke-linejoin:round;stroke-miterlimit:10;}
	.st8{fill:none;stroke:url(#SVGID_8_);stroke-width:10;stroke-linecap:round;stroke-linejoin:round;stroke-miterlimit:10;}
	.st9{fill:none;stroke:url(#SVGID_9_);stroke-width:10;stroke-linecap:round;stroke-linejoin:round;stroke-miterlimit:10;}
	.st10{fill:none;stroke:url(#SVGID_10_);stroke-width:10;stroke-linecap:round;stroke-linejoin:round;stroke-miterlimit:10;}
	.st11{fill:none;stroke:url(#SVGID_11_);stroke-width:10;stroke-linecap:round;stroke-linejoin:round;stroke-miterlimit:10;}
	.st12{fill:none;stroke:url(#SVGID_12_);stroke-width:10;stroke-linecap:round;stroke-linejoin:round;stroke-miterlimit:10;}
</style>
<line class="st0" x1="116.6" y1="266.61" x2="116.6" y2="154.26"/>
<polyline class="st0" points="70.57,154.26 69.48,266.61 116.6,266.61 "/>
<line class="st0" x1="113.49" y1="154.26" x2="71.58" y2="154.26"/>
<path class="st0" d="M185.83,191.28c-13.03,0-26.06,0-39.09,0v-26.51c0-5.76,4.61-10.43,10.3-10.43c3.51-0.64,10.17-1.4,17.88,0.82
	c22.32,5.57,22.42,24.01,16.6,36.13c10.25,1.54,28.35,20.12,27.04,43.16c-0.02,6.24-4.27,28.62-23.22,33.15l-48.61-0.45v-24.9"/>
<path class="st0" d="M245.85,268.12v-97.03c0,0,0-5.11,0-5.11c0-5.64-4.48-10.21-10.01-10.21c-1.66,0-7.7,0.03-19.69-0.45
	L239.01,166"/>
<polyline class="st0" points="278.6,268.57 302.37,156.22 332.5,156.22 344.96,216.31 "/>
<line class="st0" x1="289.55" y1="223.46" x2="317.1" y2="223.46"/>
<polyline class="st0" points="348.52,237.46 354.67,268.57 370.07,268.57 "/>
<line class="st0" x1="146.74" y1="194.41" x2="146.74" y2="211.49"/>
<path class="st0" d="M214.14,181.72"/>
<linearGradient id="SVGID_1_" gradientUnits="userSpaceOnUse" x1="15.4632" y1="115.792" x2="199.4958" y2="115.792">
	<stop  offset="0" style="stop-color:#59C0CA"/>
	<stop  offset="1" style="stop-color:#23388E"/>
</linearGradient>
<path class="st1" d="M156.44,116.11c8.02,0,30.04,0,38.06,0V53.91c-17.8-40.91-73.23-31.59-78.56,13.65
	C83.84,50.6,50.17,82.4,63.91,119.14c-5.56,1.2-21.55,5.48-33.87,21.24c-19.32,24.71-3.57,59.97-2.79,63.34"/>
<linearGradient id="SVGID_2_" gradientUnits="userSpaceOnUse" x1="218.5958" y1="115.792" x2="409.9363" y2="115.792">
	<stop  offset="0" style="stop-color:#59C0CA"/>
	<stop  offset="1" style="stop-color:#23388E"/>
</linearGradient>
<path class="st2" d="M223.6,116.11V53.91c18.37-40.91,75.56-31.59,81.06,13.65c33.11-16.96,67.85,14.84,53.68,51.58
	c45.76,10.76,52.66,52.21,42.56,84.58"/>
<linearGradient id="SVGID_3_" gradientUnits="userSpaceOnUse" x1="15.9349" y1="311.9489" x2="201.2416" y2="311.9489">
	<stop  offset="0" style="stop-color:#59C0CA"/>
	<stop  offset="1" style="stop-color:#23388E"/>
</linearGradient>
<path class="st3" d="M196.24,307.26v62.21c-17.8,40.91-73.23,31.59-78.56-13.65c-32.09,16.96-65.76-14.84-52.02-51.58
	c-37.69-9-53.05-44.16-40.33-75.84"/>
<g>
	<linearGradient id="SVGID_4_" gradientUnits="userSpaceOnUse" x1="220.397" y1="310.934" x2="411.2786" y2="310.934">
		<stop  offset="0" style="stop-color:#59C0CA"/>
		<stop  offset="1" style="stop-color:#23388E"/>
	</linearGradient>
	<path class="st4" d="M401.74,226.35c12.64,32.38-1.07,68.3-41.61,77.87c14.18,36.76-20.58,68.54-53.68,51.58
		c-5.51,45.27-62.7,54.54-81.06,13.65v-62.21c8.28,0,39.15,0,47.43,0l0.05-0.1l-0.35,30.08"/>
	<linearGradient id="SVGID_5_" gradientUnits="userSpaceOnUse" x1="264.898" y1="344.491" x2="280.1593" y2="344.491">
		<stop  offset="0" style="stop-color:#59C0CA"/>
		<stop  offset="1" style="stop-color:#23388E"/>
	</linearGradient>
	<path class="st5" d="M275.16,344.49c-0.09,3.65-5.17,3.65-5.26,0C269.99,340.84,275.07,340.85,275.16,344.49z"/>
</g>
<linearGradient id="SVGID_6_" gradientUnits="userSpaceOnUse" x1="124.3463" y1="320.7784" x2="166.9367" y2="320.7784">
	<stop  offset="0" style="stop-color:#59C0CA"/>
	<stop  offset="1" style="stop-color:#23388E"/>
</linearGradient>
<path class="st6" d="M129.35,307.16c6.41,0,12.82,0,19.24,0h2.16c6.18,0,11.19,5.44,11.19,12.16c0,5.03,0,10.05,0,15.08"/>
<linearGradient id="SVGID_7_" gradientUnits="userSpaceOnUse" x1="154.3905" y1="341.7228" x2="169.4829" y2="341.7228">
	<stop  offset="0" style="stop-color:#59C0CA"/>
	<stop  offset="1" style="stop-color:#23388E"/>
</linearGradient>
<path class="st7" d="M164.48,341.72c-0.08,3.65-5.01,3.65-5.09,0C159.47,338.08,164.4,338.08,164.48,341.72z"/>
<linearGradient id="SVGID_8_" gradientUnits="userSpaceOnUse" x1="114.252" y1="307.1592" x2="129.3444" y2="307.1592">
	<stop  offset="0" style="stop-color:#59C0CA"/>
	<stop  offset="1" style="stop-color:#23388E"/>
</linearGradient>
<path class="st8" d="M124.34,307.16c-0.08,3.65-5.01,3.65-5.09,0C119.34,303.51,124.26,303.51,124.34,307.16z"/>
<linearGradient id="SVGID_9_" gradientUnits="userSpaceOnUse" x1="257.3579" y1="94.6741" x2="300.9832" y2="94.6741">
	<stop  offset="0" style="stop-color:#59C0CA"/>
	<stop  offset="1" style="stop-color:#23388E"/>
</linearGradient>
<path class="st9" d="M295.98,108.29c-6.62,0-13.23,0-19.85,0h-2.23c-6.38,0-11.55-5.44-11.55-12.16c0-5.03,0-10.05,0-15.08"/>
<linearGradient id="SVGID_10_" gradientUnits="userSpaceOnUse" x1="254.7309" y1="73.7297" x2="269.985" y2="73.7297">
	<stop  offset="0" style="stop-color:#59C0CA"/>
	<stop  offset="1" style="stop-color:#23388E"/>
</linearGradient>
<path class="st10" d="M259.73,73.73c0.09-3.65,5.17-3.65,5.25,0C264.9,77.38,259.82,77.38,259.73,73.73z"/>
<linearGradient id="SVGID_11_" gradientUnits="userSpaceOnUse" x1="296.144" y1="108.2933" x2="311.3981" y2="108.2933">
	<stop  offset="0" style="stop-color:#59C0CA"/>
	<stop  offset="1" style="stop-color:#23388E"/>
</linearGradient>
<path class="st11" d="M301.14,108.29c0.09-3.65,5.17-3.65,5.25,0C306.31,111.94,301.23,111.94,301.14,108.29z"/>
<linearGradient id="SVGID_12_" gradientUnits="userSpaceOnUse" x1="142.0752" y1="115.7049" x2="157.1676" y2="115.7049">
	<stop  offset="0" style="stop-color:#59C0CA"/>
	<stop  offset="1" style="stop-color:#23388E"/>
</linearGradient>
<path class="st12" d="M147.08,115.7c0.08-3.65,5.01-3.65,5.09,0C152.08,119.35,147.16,119.35,147.08,115.7z"/>
</svg>
