<?xml version="1.0" encoding="utf-8"?>
<!-- Generator: Adobe Illustrator 24.1.3, SVG Export Plug-In . SVG Version: 6.00 Build 0)  -->
<svg version="1.1" id="Capa_1" xmlns="http://www.w3.org/2000/svg" xmlns:xlink="http://www.w3.org/1999/xlink" x="0px" y="0px"
	 viewBox="0 0 708.66 425.2" style="enable-background:new 0 0 708.66 425.2;" xml:space="preserve">
<style type="text/css">
	.st0{fill:none;stroke:#23388E;stroke-width:12.5;stroke-linecap:round;stroke-linejoin:round;stroke-miterlimit:10;}
	.st1{fill:none;stroke:url(#SVGID_1_);stroke-width:10;stroke-linecap:round;stroke-linejoin:round;stroke-miterlimit:10;}
	.st2{fill:none;stroke:url(#SVGID_2_);stroke-width:10;stroke-linecap:round;stroke-linejoin:round;stroke-miterlimit:10;}
	.st3{fill:none;stroke:url(#SVGID_3_);stroke-width:10;stroke-linecap:round;stroke-linejoin:round;stroke-miterlimit:10;}
	.st4{fill:none;stroke:url(#SVGID_4_);stroke-width:10;stroke-linecap:round;stroke-linejoin:round;stroke-miterlimit:10;}
	.st5{fill:none;stroke:url(#SVGID_5_);stroke-width:10;stroke-linecap:round;stroke-linejoin:round;stroke-miterlimit:10;}
	.st6{fill:none;stroke:url(#SVGID_6_);stroke-width:10;stroke-linecap:round;stroke-linejoin:round;stroke-miterlimit:10;}
	.st7{fill:none;stroke:url(#SVGID_7_);stroke-width:10;stroke-linecap:round;stroke-linejoin:round;stroke-miterlimit:10;}
	.st8{fill:none;stroke:url(#SVGID_8_);stroke-width:10;stroke-linecap:round;stroke-linejoin:round;stroke-miterlimit:10;}
	.st9{fill:none;stroke:url(#SVGID_9_);stroke-width:10;stroke-linecap:round;stroke-linejoin:round;stroke-miterlimit:10;}
	.st10{fill:none;stroke:url(#SVGID_10_);stroke-width:10;stroke-linecap:round;stroke-linejoin:round;stroke-miterlimit:10;}
	.st11{fill:none;stroke:url(#SVGID_11_);stroke-width:10;stroke-linecap:round;stroke-linejoin:round;stroke-miterlimit:10;}
	.st12{fill:none;stroke:url(#SVGID_12_);stroke-width:10;stroke-linecap:round;stroke-linejoin:round;stroke-miterlimit:10;}
	.st13{fill:#59C0CA;}
	.st14{fill:#23388E;}
</style>
<line class="st0" x1="97.96" y1="262.82" x2="97.96" y2="178.92"/>
<polyline class="st0" points="64.86,178.92 64.08,262.83 97.96,262.83 "/>
<line class="st0" x1="95.72" y1="178.92" x2="65.59" y2="178.92"/>
<path class="st0" d="M147.74,206.56c-9.37,0-18.74,0-28.11,0v-19.8c0-4.3,3.32-7.79,7.41-7.79c2.52-0.48,7.32-1.04,12.86,0.61
	c16.05,4.16,16.12,17.93,11.93,26.98c7.37,1.15,20.38,15.03,19.45,32.23c-0.01,4.66-3.07,21.37-16.69,24.76l-34.95-0.34v-18.59"/>
<path class="st0" d="M190.89,263.95v-72.47c0,0,0-3.81,0-3.81c0-4.21-3.22-7.63-7.2-7.63c-1.19,0-5.53,0.02-14.15-0.34l16.43,7.98"
	/>
<polyline class="st0" points="214.44,264.29 231.53,180.38 253.2,180.38 262.16,225.25 "/>
<line class="st0" x1="222.31" y1="230.59" x2="242.12" y2="230.59"/>
<polyline class="st0" points="264.72,241.05 269.14,264.29 280.21,264.29 "/>
<line class="st0" x1="119.63" y1="208.9" x2="119.63" y2="221.66"/>
<path class="st0" d="M168.1,199.42"/>
<linearGradient id="SVGID_1_" gradientUnits="userSpaceOnUse" x1="23.836" y1="150.1855" x2="158.9698" y2="150.1855">
	<stop  offset="0" style="stop-color:#59C0CA"/>
	<stop  offset="1" style="stop-color:#23388E"/>
</linearGradient>
<path class="st1" d="M126.6,150.42c5.77,0,21.6,0,27.36,0v-46.46c-12.8-30.55-52.65-23.59-56.49,10.2
	c-23.08-12.66-47.29,11.09-37.41,38.53c-4,0.9-15.49,4.1-24.35,15.86c-13.89,18.46-2.57,44.79-2.01,47.31"/>
<linearGradient id="SVGID_2_" gradientUnits="userSpaceOnUse" x1="169.8934" y1="150.1855" x2="310.2817" y2="150.1855">
	<stop  offset="0" style="stop-color:#59C0CA"/>
	<stop  offset="1" style="stop-color:#23388E"/>
</linearGradient>
<path class="st2" d="M174.89,150.42v-46.46c13.21-30.55,54.33-23.59,58.28,10.2c23.81-12.66,48.79,11.09,38.59,38.53
	c32.9,8.04,37.87,39,30.6,63.17"/>
<linearGradient id="SVGID_3_" gradientUnits="userSpaceOnUse" x1="24.1752" y1="296.6856" x2="160.2251" y2="296.6856">
	<stop  offset="0" style="stop-color:#59C0CA"/>
	<stop  offset="1" style="stop-color:#23388E"/>
</linearGradient>
<path class="st3" d="M155.23,293.18v46.46c-12.8,30.55-52.65,23.59-56.49-10.2c-23.08,12.66-47.29-11.09-37.41-38.53
	c-27.1-6.73-38.15-32.98-29-56.64"/>
<g>
	<linearGradient id="SVGID_4_" gradientUnits="userSpaceOnUse" x1="171.1886" y1="295.9276" x2="311.2469" y2="295.9276">
		<stop  offset="0" style="stop-color:#59C0CA"/>
		<stop  offset="1" style="stop-color:#23388E"/>
	</linearGradient>
	<path class="st4" d="M302.98,232.76c9.09,24.19-0.77,51.01-29.92,58.16c10.2,27.45-14.8,51.19-38.59,38.53
		c-3.96,33.81-45.09,40.74-58.28,10.2v-46.46c5.95,0,28.15,0,34.11,0l0.03-0.07l-0.25,22.46"/>
	<linearGradient id="SVGID_5_" gradientUnits="userSpaceOnUse" x1="203.1859" y1="320.9897" x2="216.9689" y2="320.9897">
		<stop  offset="0" style="stop-color:#59C0CA"/>
		<stop  offset="1" style="stop-color:#23388E"/>
	</linearGradient>
	<path class="st5" d="M211.97,320.99c-0.07,2.72-3.72,2.72-3.78,0C208.25,318.26,211.9,318.27,211.97,320.99z"/>
</g>
<linearGradient id="SVGID_6_" gradientUnits="userSpaceOnUse" x1="102.1257" y1="303.2799" x2="135.559" y2="303.2799">
	<stop  offset="0" style="stop-color:#59C0CA"/>
	<stop  offset="1" style="stop-color:#23388E"/>
</linearGradient>
<path class="st6" d="M107.13,293.11c4.61,0,9.22,0,13.83,0h1.55c4.45,0,8.05,4.07,8.05,9.08c0,3.75,0,7.51,0,11.26"/>
<linearGradient id="SVGID_7_" gradientUnits="userSpaceOnUse" x1="123.7282" y1="318.9223" x2="137.3898" y2="318.9223">
	<stop  offset="0" style="stop-color:#59C0CA"/>
	<stop  offset="1" style="stop-color:#23388E"/>
</linearGradient>
<path class="st7" d="M132.39,318.92c-0.06,2.72-3.6,2.72-3.66,0C128.79,316.2,132.33,316.2,132.39,318.92z"/>
<linearGradient id="SVGID_8_" gradientUnits="userSpaceOnUse" x1="94.8676" y1="293.1084" x2="108.5292" y2="293.1084">
	<stop  offset="0" style="stop-color:#59C0CA"/>
	<stop  offset="1" style="stop-color:#23388E"/>
</linearGradient>
<path class="st8" d="M103.53,293.11c-0.06,2.72-3.6,2.72-3.66,0C99.93,290.38,103.47,290.38,103.53,293.11z"/>
<linearGradient id="SVGID_9_" gradientUnits="userSpaceOnUse" x1="197.7644" y1="134.4136" x2="231.9418" y2="134.4136">
	<stop  offset="0" style="stop-color:#59C0CA"/>
	<stop  offset="1" style="stop-color:#23388E"/>
</linearGradient>
<path class="st9" d="M226.94,144.59c-4.76,0-9.51,0-14.27,0h-1.6c-4.59,0-8.31-4.07-8.31-9.08c0-3.75,0-7.51,0-11.26"/>
<linearGradient id="SVGID_10_" gradientUnits="userSpaceOnUse" x1="195.8754" y1="118.7712" x2="209.6533" y2="118.7712">
	<stop  offset="0" style="stop-color:#59C0CA"/>
	<stop  offset="1" style="stop-color:#23388E"/>
</linearGradient>
<path class="st10" d="M200.88,118.77c0.06-2.72,3.72-2.72,3.78,0C204.59,121.5,200.94,121.49,200.88,118.77z"/>
<linearGradient id="SVGID_11_" gradientUnits="userSpaceOnUse" x1="225.6525" y1="144.5851" x2="239.4303" y2="144.5851">
	<stop  offset="0" style="stop-color:#59C0CA"/>
	<stop  offset="1" style="stop-color:#23388E"/>
</linearGradient>
<path class="st11" d="M230.65,144.59c0.06-2.72,3.72-2.72,3.78,0C234.37,147.31,230.71,147.31,230.65,144.59z"/>
<linearGradient id="SVGID_12_" gradientUnits="userSpaceOnUse" x1="114.8732" y1="150.1205" x2="128.5348" y2="150.1205">
	<stop  offset="0" style="stop-color:#59C0CA"/>
	<stop  offset="1" style="stop-color:#23388E"/>
</linearGradient>
<path class="st12" d="M119.87,150.12c0.06-2.72,3.6-2.72,3.66,0C123.47,152.84,119.93,152.84,119.87,150.12z"/>
<g>
	<g>
		<g>
			<path class="st13" d="M332.46,166.3c-2.1,0-3.9-0.42-5.4-1.25s-2.65-2.03-3.44-3.6c-0.8-1.57-1.2-3.45-1.2-5.64v-13.6
				c0-2.19,0.4-4.07,1.2-5.64c0.8-1.57,1.95-2.77,3.44-3.6c1.5-0.83,3.3-1.25,5.4-1.25c2.1,0,3.9,0.42,5.4,1.25
				c1.5,0.83,2.65,2.03,3.44,3.6s1.2,3.45,1.2,5.64v13.6c0,2.19-0.4,4.07-1.2,5.64s-1.95,2.77-3.44,3.6S334.56,166.3,332.46,166.3z
				 M332.46,162.46c1.9,0,3.39-0.58,4.47-1.74c1.07-1.16,1.61-2.74,1.61-4.76v-13.88c0-2.03-0.54-3.63-1.61-4.77
				c-1.07-1.15-2.56-1.72-4.47-1.72c-1.9,0-3.4,0.57-4.48,1.72c-1.08,1.15-1.62,2.74-1.62,4.77v13.88c0,2.02,0.54,3.61,1.62,4.76
				C329.06,161.88,330.56,162.46,332.46,162.46z"/>
			<path class="st13" d="M348.61,165.96v-33.86h3.94v33.86H348.61z M350.96,165.96v-3.75h15.36v3.75H350.96z"/>
			<path class="st13" d="M375.03,132.09v33.86h-3.94v-33.86H375.03z"/>
			<path class="st13" d="M394.26,155.27l8.75-23.17h3.75v33.86h-3.78v-26.83l0.3,1.49l-7.62,20.43h-2.81l-7.62-19.96l0.32-1.96
				v26.83h-3.8v-33.86h3.78L394.26,155.27z"/>
			<path class="st13" d="M413.22,165.96v-33.86h3.94v33.86H413.22z M415.63,152.82v-3.75h8.73c1.37,0,2.45-0.46,3.25-1.39
				c0.8-0.92,1.2-2.15,1.2-3.69v-2.98c0-1.6-0.4-2.86-1.2-3.79c-0.8-0.92-1.88-1.39-3.25-1.39h-8.73v-3.75h8.57
				c1.78,0,3.31,0.36,4.58,1.07s2.26,1.74,2.96,3.07c0.7,1.34,1.05,2.92,1.05,4.75v3.03c0,1.8-0.35,3.36-1.05,4.68
				c-0.7,1.32-1.69,2.34-2.97,3.05c-1.28,0.71-2.81,1.07-4.57,1.07H415.63z"/>
			<path class="st13" d="M442.42,132.09v33.86h-3.94v-33.86H442.42z"/>
			<path class="st13" d="M446.73,165.96l10.04-33.86h4.01l10.04,33.86h-4.28l-7.76-28.67l-7.76,28.67H446.73z M451.89,158.13v-3.7
				h14.14v3.7H451.89z"/>
			<path class="st13" d="M474.85,165.96v-33.86h3.94v33.86H474.85z M477.57,165.96v-3.75h7.37c1.8,0,3.16-0.47,4.1-1.4
				s1.41-2.27,1.41-4.03v-15.51c0-1.75-0.47-3.1-1.41-4.03s-2.3-1.4-4.1-1.4h-7.37v-3.75h7.23c3.12,0,5.5,0.8,7.14,2.4
				s2.46,3.91,2.46,6.94v15.19c0,2.02-0.37,3.72-1.11,5.11c-0.74,1.39-1.82,2.44-3.25,3.16c-1.43,0.71-3.19,1.07-5.27,1.07H477.57z"
				/>
			<path class="st13" d="M498.09,165.96l10.04-33.86h4.01l10.04,33.86h-4.28l-7.76-28.67l-7.76,28.67H498.09z M503.25,158.13v-3.7
				h14.14v3.7H503.25z"/>
			<path class="st13" d="M322.76,209.57V175.7h3.89v33.86H322.76z M325.53,209.57v-3.68h7.58c1.86,0,3.21-0.39,4.04-1.18
				s1.26-1.83,1.26-3.13v-2.66c0-1.58-0.4-2.82-1.21-3.71c-0.81-0.89-2.02-1.34-3.63-1.34h-8.04v-3.66h8.04
				c1.44,0,2.54-0.39,3.28-1.16s1.12-1.9,1.12-3.38v-2.07c0-1.4-0.4-2.45-1.2-3.16c-0.8-0.71-1.97-1.06-3.5-1.06h-7.74v-3.68h8.08
				c2.73,0,4.8,0.69,6.2,2.06c1.4,1.37,2.1,3.26,2.1,5.65v2.07c0,1.63-0.4,3.06-1.2,4.27c-0.8,1.22-2.03,2-3.69,2.34
				c1.69,0.28,3,1.07,3.93,2.38c0.93,1.3,1.39,2.88,1.39,4.73v2.54c0,2.41-0.73,4.31-2.18,5.72c-1.45,1.41-3.47,2.11-6.05,2.11
				H325.53z"/>
			<path class="st13" d="M357.57,209.92c-2.1,0-3.9-0.42-5.4-1.25s-2.65-2.03-3.44-3.6c-0.8-1.57-1.2-3.45-1.2-5.64v-13.6
				c0-2.19,0.4-4.07,1.2-5.64c0.8-1.57,1.95-2.77,3.44-3.6c1.5-0.83,3.3-1.25,5.4-1.25c2.1,0,3.9,0.42,5.4,1.25
				c1.5,0.83,2.64,2.03,3.44,3.6c0.8,1.57,1.2,3.45,1.2,5.64v13.6c0,2.19-0.4,4.07-1.2,5.64c-0.8,1.57-1.95,2.77-3.44,3.6
				S359.67,209.92,357.57,209.92z M357.57,206.07c1.9,0,3.39-0.58,4.47-1.74c1.08-1.16,1.61-2.74,1.61-4.76v-13.88
				c0-2.03-0.54-3.63-1.61-4.77c-1.07-1.15-2.56-1.72-4.47-1.72c-1.9,0-3.4,0.57-4.48,1.72c-1.08,1.15-1.62,2.74-1.62,4.77v13.88
				c0,2.02,0.54,3.61,1.62,4.76C354.17,205.5,355.66,206.07,357.57,206.07z"/>
			<path class="st13" d="M373.71,209.57V175.7h3.94v33.86H373.71z M376.06,209.57v-3.75h15.36v3.75H376.06z"/>
			<path class="st13" d="M400.13,175.7v33.86h-3.94V175.7H400.13z"/>
			<path class="st13" d="M413.1,209.57l-9.01-33.86h4.17l6.91,27.93l6.91-27.93h4.17l-9.01,33.86H413.1z"/>
			<path class="st13" d="M434.15,175.7v33.86h-3.94V175.7H434.15z"/>
			<path class="st13" d="M438.46,209.57l10.04-33.86h4.01l10.04,33.86h-4.28l-7.76-28.67l-7.76,28.67H438.46z M443.62,201.74v-3.7
				h14.14v3.7H443.62z"/>
			<path class="st13" d="M466.58,209.54V175.7h3.62l13.94,27.6l-0.83,0.23V175.7h3.87v33.84h-3.69l-13.96-27.37l0.9-0.12v27.48
				H466.58z"/>
			<path class="st13" d="M491.21,209.57l10.04-33.86h4.01l10.04,33.86h-4.28l-7.76-28.67l-7.76,28.67H491.21z M496.37,201.74v-3.7
				h14.14v3.7H496.37z"/>
			<path class="st13" d="M529.95,209.57v-29.03h3.38v29.03H529.95z M532.28,209.57v-3.21h6.32c1.54,0,2.71-0.4,3.51-1.2
				c0.8-0.8,1.2-1.95,1.2-3.45v-13.3c0-1.5-0.4-2.65-1.2-3.45c-0.8-0.8-1.97-1.2-3.51-1.2h-6.32v-3.21h6.2
				c2.67,0,4.71,0.69,6.12,2.06s2.11,3.35,2.11,5.95v13.02c0,1.73-0.32,3.19-0.95,4.38c-0.63,1.19-1.56,2.09-2.78,2.71
				c-1.22,0.61-2.73,0.92-4.52,0.92H532.28z"/>
			<path class="st13" d="M551.94,209.57v-29.03h3.38v29.03H551.94z M553.9,183.75v-3.21h13.42v3.21H553.9z M553.9,196.75v-3.19
				h11.85v3.19H553.9z M553.9,209.57v-3.21h13.42v3.21H553.9z"/>
			<path class="st14" d="M335.52,230v6.66h-3.16v24.86h3.16v6.65H320.7v-6.65h3.16v-24.86h-3.16V230H335.52z"/>
			<path class="st14" d="M375.44,268.17h-8.58l-15.56-23.98c-0.91-1.4-1.54-2.46-1.9-3.17h-0.11c0.14,1.35,0.21,3.41,0.21,6.17
				v20.98h-8.03V230h9.16l14.98,23.24c0.68,1.05,1.32,2.08,1.9,3.11h0.11c-0.14-0.89-0.21-2.64-0.21-5.24V230h8.03V268.17z"/>
			<path class="st14" d="M411.12,237h-10.77v31.17h-8.53V237h-10.71v-7h30.01V237z"/>
			<path class="st14" d="M439.38,268.17h-22.64V230h21.77v7h-13.27v8.49h12.35v6.97h-12.35v8.73h14.14V268.17z"/>
			<path class="st14" d="M468.45,268.17h-22.48V230h8.5v31.2h13.98V268.17z"/>
			<path class="st14" d="M485.73,230v6.66h-3.16v24.86h3.16v6.65h-14.82v-6.65h3.16v-24.86h-3.16V230H485.73z"/>
			<path class="st14" d="M522.68,265.61c-3.69,2.15-8.27,3.22-13.74,3.22c-6.07,0-10.86-1.7-14.36-5.1
				c-3.5-3.4-5.25-8.08-5.25-14.04c0-6,1.91-10.89,5.74-14.67s8.92-5.67,15.27-5.67c4,0,7.53,0.56,10.58,1.68v8.07
				c-2.91-1.7-6.48-2.55-10.69-2.55c-3.53,0-6.4,1.16-8.62,3.47c-2.22,2.32-3.33,5.41-3.33,9.28c0,3.92,1,6.96,2.99,9.1
				s4.68,3.22,8.07,3.22c2.04,0,3.65-0.29,4.84-0.88v-7.45h-7.55v-6.87h16.06V265.61z"/>
			<path class="st14" d="M553.2,268.17h-22.64V230h21.77v7h-13.27v8.49h12.35v6.97h-12.35v8.73h14.14V268.17z"/>
			<path class="st14" d="M593.75,268.17h-8.58l-15.56-23.98c-0.91-1.4-1.54-2.46-1.9-3.17h-0.1c0.14,1.35,0.21,3.41,0.21,6.17v20.98
				h-8.03V230h9.16l14.98,23.24c0.68,1.05,1.32,2.08,1.9,3.11h0.11c-0.14-0.89-0.21-2.64-0.21-5.24V230h8.03V268.17z"/>
			<path class="st14" d="M629.99,266.81c-2.75,1.35-6.35,2.02-10.79,2.02c-5.79,0-10.34-1.72-13.66-5.16
				c-3.32-3.44-4.97-8.03-4.97-13.76c0-6.1,1.86-11.06,5.59-14.85c3.73-3.8,8.57-5.7,14.52-5.7c3.69,0,6.79,0.47,9.32,1.41v8.28
				c-2.53-1.53-5.41-2.29-8.63-2.29c-3.54,0-6.41,1.13-8.58,3.38c-2.18,2.25-3.26,5.31-3.26,9.16c0,3.69,1.03,6.63,3.08,8.82
				c2.05,2.19,4.82,3.29,8.29,3.29c3.32,0,6.35-0.82,9.11-2.45V266.81z"/>
			<path class="st14" d="M648.77,230v6.66h-3.16v24.86h3.16v6.65h-14.82v-6.65h3.16v-24.86h-3.16V230H648.77z"/>
			<path class="st14" d="M687.92,268.17h-9.27l-2.69-8.49h-13.42l-2.66,8.49h-9.21L664.42,230h10.08L687.92,268.17z M674.02,253.08
				l-4.05-12.83c-0.3-0.96-0.51-2.1-0.63-3.43h-0.21c-0.09,1.12-0.31,2.23-0.66,3.33l-4.11,12.94H674.02z"/>
			<path class="st14" d="M357.05,326.77h-9.27l-2.69-8.49h-13.43l-2.66,8.49h-9.21l13.74-38.17h10.08L357.05,326.77z M343.15,311.68
				l-4.05-12.83c-0.3-0.96-0.51-2.1-0.63-3.43h-0.21c-0.09,1.12-0.31,2.23-0.66,3.33l-4.11,12.94H343.15z"/>
			<path class="st14" d="M393.97,326.77h-9.77l-5.87-9.82c-0.44-0.75-0.86-1.41-1.26-2c-0.4-0.59-0.81-1.09-1.22-1.5
				c-0.41-0.42-0.84-0.74-1.29-0.96s-0.93-0.33-1.46-0.33h-2.29v14.61h-8.5V288.6h13.48c9.16,0,13.74,3.46,13.74,10.38
				c0,1.33-0.2,2.56-0.61,3.69c-0.4,1.13-0.97,2.14-1.71,3.05c-0.74,0.9-1.63,1.69-2.67,2.34c-1.04,0.66-2.21,1.17-3.49,1.54v0.11
				c0.56,0.18,1.11,0.47,1.63,0.87c0.53,0.4,1.04,0.87,1.53,1.4c0.49,0.53,0.96,1.1,1.41,1.72s0.86,1.21,1.22,1.8L393.97,326.77z
				 M370.8,295.04v10.62h3.69c1.82,0,3.29-0.53,4.4-1.6c1.12-1.08,1.68-2.42,1.68-4.02c0-3.34-1.97-5-5.92-5H370.8z"/>
			<path class="st14" d="M424.54,295.6h-10.77v31.17h-8.53V295.6h-10.71v-7h30.01V295.6z"/>
			<path class="st14" d="M441.82,288.6v6.66h-3.16v24.86h3.16v6.65H427v-6.65h3.16v-24.86H427v-6.66H441.82z"/>
			<path class="st14" d="M469.61,295.6h-13.32v9.37h12.24v6.97h-12.24v14.83h-8.5V288.6h21.82V295.6z"/>
			<path class="st14" d="M488.02,288.6v6.66h-3.16v24.86h3.16v6.65H473.2v-6.65h3.16v-24.86h-3.16v-6.66H488.02z"/>
			<path class="st14" d="M521.04,325.42c-2.75,1.35-6.35,2.02-10.79,2.02c-5.79,0-10.34-1.72-13.66-5.16
				c-3.32-3.44-4.97-8.03-4.97-13.76c0-6.1,1.86-11.06,5.59-14.85c3.73-3.8,8.57-5.7,14.52-5.7c3.69,0,6.79,0.47,9.32,1.41v8.28
				c-2.53-1.53-5.41-2.29-8.63-2.29c-3.54,0-6.41,1.13-8.58,3.38c-2.18,2.25-3.26,5.31-3.26,9.16c0,3.69,1.03,6.63,3.08,8.82
				c2.05,2.19,4.82,3.29,8.29,3.29c3.32,0,6.35-0.82,9.11-2.45V325.42z"/>
			<path class="st14" d="M539.83,288.6v6.66h-3.16v24.86h3.16v6.65h-14.82v-6.65h3.16v-24.86h-3.16v-6.66H539.83z"/>
			<path class="st14" d="M578.98,326.77h-9.27l-2.69-8.49h-13.42l-2.66,8.49h-9.21l13.74-38.17h10.08L578.98,326.77z M565.08,311.68
				l-4.05-12.83c-0.3-0.96-0.51-2.1-0.63-3.43h-0.21c-0.09,1.12-0.31,2.23-0.66,3.33l-4.11,12.94H565.08z"/>
			<path class="st14" d="M606.71,326.77h-22.48V288.6h8.5v31.2h13.98V326.77z"/>
		</g>
	</g>
</g>
</svg>
